<svg xmlns="http://www.w3.org/2000/svg" width="50" height="50" viewBox="0 0 170 56" fill="none">
    <path fill-rule="evenodd" clip-rule="evenodd" d="M41.4567 0.105386C34.5898 1.08284 26.6365 4.97464 20.1124 10.5497C19.535 11.043 18.955 11.5605 18.8235 11.6998L18.5844 11.953L20.6817 14.2417L22.7789 16.5304L24.1292 15.35C28.909 11.1714 32.4064 8.61235 35.6976 6.88509C39.1597 5.06824 42.4637 4.21281 45.3981 4.37365C50.8633 4.67317 51.9961 7.95837 49.2352 15.5022C48.9874 16.1792 48.7848 16.7592 48.7848 16.7914C48.7848 16.8235 49.0101 16.5134 49.2855 16.1023C51.2321 13.1967 52.484 10.5839 52.8952 8.56862C53.054 7.79058 53.0334 6.27689 52.8547 5.58507C52.5802 4.52212 52.0612 3.61725 51.2184 2.73225C49.9595 1.41022 48.6192 0.643673 46.8414 0.228736C45.8195 -0.00976988 42.7582 -0.0798612 41.4567 0.105386ZM13.0799 8.31649C7.40469 14.6477 4.59905 18.4354 2.57929 22.4924C1.63514 24.3889 1.06556 25.8918 0.616031 27.6723C-0.536045 32.236 -0.0401718 37.3328 1.83548 40.204C4.57927 44.4042 10.1029 45.1549 18.2813 42.4392C19.9378 41.8891 20.5631 41.5961 19.884 41.6881C19.3764 41.7568 16.162 41.5909 15.0968 41.4409C11.9304 40.9951 9.66562 40.0926 8.15679 38.6756C6.74092 37.3458 6.09737 35.7419 6.09612 33.5397C6.09576 32.9217 6.15423 32.0794 6.22597 31.6683C7.04188 26.9927 10.7528 20.7416 16.7767 13.8956C18.6548 11.7611 18.6013 11.8288 18.5059 11.7054C18.4597 11.6456 17.5875 10.5146 16.5677 9.19205C15.5479 7.86949 14.6842 6.75409 14.6484 6.71338C14.6125 6.67259 13.9067 7.39399 13.0799 8.31649ZM29.3053 15.5703C29.2849 15.6033 29.1128 16.2772 28.9229 17.0677C28.733 17.8583 28.5524 18.5304 28.5214 18.5613C28.4905 18.5922 27.8195 18.5449 27.0303 18.4562C24.8002 18.2055 22.9509 18.3981 20.9552 19.0888C18.3253 19.999 16.3055 21.7517 15.1061 24.1642C14.2068 25.9727 13.8883 28.4242 14.2452 30.7898C14.9603 35.5309 18.7326 39.4169 24.1426 40.9859C27.9857 42.1005 32.0908 41.7563 35.4165 40.0405C36.7533 39.3509 37.7433 38.6022 38.8984 37.4073C40.7225 35.5206 41.8578 33.3997 42.4185 30.8314C42.6075 29.9661 42.6362 27.8772 42.47 27.0934C42.0629 25.1745 41.2742 23.734 39.9044 22.4076C38.4697 21.0183 36.5856 20.0403 34.1667 19.4293C33.1384 19.1695 31.1266 18.8562 30.4829 18.8557C30.079 18.8552 30.0532 18.8418 30.0984 18.6548C30.2619 17.9794 30.6141 15.7186 30.5637 15.6681C30.4796 15.5841 29.351 15.4963 29.3053 15.5703ZM30.9014 19.9202C33.6368 20.509 36.5493 21.8966 37.7072 23.1628C38.2266 23.7306 38.7468 24.5865 39.1938 25.6083C39.5539 26.4313 40.1605 28.1268 40.1122 28.175C40.0952 28.192 39.8238 27.9827 39.5091 27.7099C38.3956 26.7446 36.5424 26.0503 34.7421 25.9238C34.2798 25.8913 33.9014 25.8577 33.9014 25.849C33.9014 25.8403 34.0035 25.5356 34.1282 25.1719C34.6057 23.7792 34.4991 22.8931 33.7545 22.0655C32.6773 20.8682 30.6678 20.5521 29.4834 21.3936C29.0493 21.7021 28.5541 22.3342 28.5541 22.5799C28.5541 22.6544 28.4914 22.7847 28.4146 22.8694C28.2839 23.0138 28.2349 22.9933 27.6388 22.5451C26.7791 21.8988 26.1609 21.5824 25.2097 21.3021C23.6918 20.8545 21.8028 21.0174 20.355 21.7203C19.6175 22.0783 18.5478 23.1288 18.1029 23.9317C17.0728 25.7912 16.9518 28.0478 17.7918 29.7392C18.1994 30.5599 19.0881 31.4166 19.967 31.8359C20.6625 32.1678 20.6737 32.1699 21.7809 32.1658C23.0643 32.161 23.5367 32.0229 24.4849 31.3755C26.3006 30.1355 26.8001 28.0478 25.6433 26.5323C25.3271 26.1179 24.7088 25.7422 23.9765 25.5193C22.8469 25.1755 21.2821 25.4231 20.5313 26.0644C20.1625 26.3793 20.2541 26.3992 21.1292 26.1941C21.9147 26.01 22.5083 26.073 23.1795 26.4116C24.0837 26.8678 24.535 27.5662 24.4172 28.3272C24.2664 29.3007 23.3974 30.3375 22.4268 30.702C21.7501 30.9561 20.8451 30.9237 20.2658 30.6248C19.0089 29.9764 18.4125 28.7299 18.512 26.9598C18.5904 25.5687 18.9918 24.6614 19.9013 23.8198C22.1835 21.7084 26.1609 22.4388 27.5374 25.2219C28.2009 26.5635 28.4599 28.4892 28.1588 29.8416C27.5934 32.3813 25.5071 33.9066 22.5984 33.9066C21.2227 33.9066 19.6169 33.5308 18.5785 32.9661C17.5679 32.4164 16.7364 31.2656 16.3275 29.8503C16.0605 28.9264 16.0418 27.0619 16.2906 26.1584C17.1738 22.951 19.6834 20.7487 23.2931 20.0136C24.5879 19.7499 25.8803 19.6661 28.1085 19.7013C29.6407 19.7254 30.2003 19.7693 30.9014 19.9202ZM32.2815 22.2985C33.414 22.842 33.7529 24.2189 33.0494 25.4184C32.7689 25.8968 32.4452 26.1396 31.4801 26.5961C31.0495 26.7997 30.6074 27.0804 30.4812 27.2303L30.2548 27.4991L30.1279 27.2963C29.9432 27.0007 29.8594 26.3411 30.0009 26.2957C30.063 26.2758 30.3418 26.1963 30.6203 26.1191C31.1799 25.9638 31.6077 25.6528 31.8165 25.2494C31.9628 24.9667 32.2265 23.8313 32.1611 23.7659C32.1394 23.7443 31.9254 23.9102 31.6853 24.1346C30.9475 24.8243 30.0939 24.8832 29.5856 24.2794C29.0973 23.6995 29.3768 22.6395 30.1099 22.2919C30.8752 21.9289 31.5157 21.9309 32.2815 22.2985ZM56.7335 23.4637L55.9928 23.4938L56.0205 23.7708C56.045 24.0155 56.0957 24.0616 56.4561 24.166C56.9805 24.3181 57.14 24.5028 57.2506 25.0856C57.3612 25.6687 57.3659 35.8273 57.2558 36.3977C57.1695 36.8447 56.8537 37.1789 56.4393 37.2617C56.2162 37.3063 56.1819 37.3534 56.1819 37.6155V37.9177L58.2094 37.8938L60.2369 37.8698L60.2651 37.6249C60.2881 37.425 60.2471 37.3637 60.0423 37.2908C59.5614 37.1197 59.345 36.9478 59.2393 36.6528C59.1608 36.4335 59.1316 34.66 59.1279 29.8766L59.1229 23.3973L58.2985 23.4155C57.8451 23.4254 57.1408 23.4471 56.7335 23.4637ZM46.5637 29.2522C45.4646 32.1795 44.431 34.9099 44.2666 35.3198C43.8403 36.3828 43.4267 36.9699 42.9374 37.2067C42.5951 37.3722 42.5404 37.4349 42.5636 37.6352L42.5908 37.8698L44.752 37.8937L46.9132 37.9175V37.6042C46.9132 37.3346 46.884 37.2909 46.7036 37.2909C46.4341 37.2909 45.9246 36.9479 45.7735 36.6648C45.5903 36.3213 45.7077 35.4416 46.0861 34.3236L46.423 33.3277L48.7583 33.3039L51.0935 33.2802L51.2808 33.9273C51.3837 34.2833 51.5064 34.6917 51.5531 34.835C51.7421 35.4135 51.8208 36.2259 51.7229 36.5891C51.6427 36.8868 51.5624 36.977 51.2526 37.1175C51.0472 37.2108 50.8089 37.2879 50.7232 37.289C50.6047 37.2905 50.5672 37.3659 50.5672 37.6026V37.9143H52.8844H55.2015V37.6205C55.2015 37.3647 55.1605 37.3119 54.8847 37.2122C54.6959 37.144 54.4607 36.9498 54.3026 36.7319C53.9997 36.3139 53.9171 36.0624 51.7812 29.0527L50.2344 23.9762L49.3982 23.9531L48.562 23.9298L46.5637 29.2522ZM111.476 24.1374C111.371 24.4105 111.486 24.5779 111.878 24.7225C112.154 24.8242 112.331 24.9631 112.458 25.1795C112.635 25.4816 112.641 25.6334 112.667 30.6361C112.694 35.9238 112.658 36.6458 112.35 36.9524C112.265 37.0374 112.034 37.1625 111.838 37.2303C111.533 37.3358 111.482 37.3902 111.482 37.6116V37.8698H113.621H115.76L115.788 37.6249C115.811 37.4253 115.77 37.3632 115.565 37.2891C114.652 36.9584 114.646 36.9351 114.646 34.1186V31.8314L115.585 31.8845C116.323 31.9262 116.591 31.9783 116.83 32.1261C117.197 32.3526 117.621 33.0257 118.793 35.2425C119.273 36.1487 119.81 37.1106 119.987 37.38L120.31 37.8698L121.711 37.8943L123.112 37.9189V37.6148C123.112 37.3364 123.085 37.3057 122.792 37.2507C122.345 37.1669 121.817 36.6082 121.272 35.6421C121.024 35.2019 120.564 34.3838 120.251 33.824C119.636 32.7262 119.038 31.9959 118.53 31.7224C118.354 31.6279 118.213 31.5295 118.216 31.504C118.219 31.4783 118.55 31.2999 118.951 31.1075C120.546 30.3423 121.364 28.936 121.207 27.2282C121.133 26.4163 120.903 25.8427 120.448 25.3371C119.989 24.8256 119.433 24.5235 118.492 24.2727C117.887 24.1115 117.454 24.0857 114.67 24.0442C111.868 24.0024 111.524 24.0125 111.476 24.1374ZM117.263 25.1348C118.337 25.4144 118.931 26.1086 119.097 27.2809C119.194 27.9692 119.102 28.8613 118.878 29.3974C118.669 29.8975 118.088 30.4757 117.562 30.7072C117.17 30.8799 116.903 30.9183 115.871 30.95L114.646 30.9878V27.9941V25.0004H115.696C116.346 25.0004 116.944 25.0518 117.263 25.1348ZM90.4555 25.9133C90.4325 26.0236 90.3698 26.388 90.316 26.7232C90.2622 27.0585 90.1557 27.4888 90.0794 27.6795C89.9036 28.1185 89.4311 28.5368 89.0251 28.613C88.7394 28.6665 88.7113 28.6988 88.7113 28.9736V29.2754H89.4167H90.1222L90.1584 32.5929C90.1974 36.1767 90.2225 36.3828 90.7084 37.1165C90.8332 37.305 91.1267 37.5716 91.3607 37.7091C91.7537 37.9399 91.8569 37.9589 92.7217 37.9589C93.7826 37.9589 94.0341 37.8664 94.9721 37.1317C95.5147 36.7066 95.5087 36.7347 95.1475 36.2968C95.0354 36.1608 94.9891 36.1714 94.5781 36.4268C93.9611 36.8101 93.1743 36.8684 92.7295 36.564C92.0424 36.0938 91.9213 35.3724 91.9204 31.7468L91.9196 29.2754H93.5684H95.2171V28.741V28.2067H93.5684H91.9196V26.9598V25.7129H91.2084C90.5425 25.7129 90.4944 25.7258 90.4555 25.9133ZM163.356 26.0024C163.161 27.1885 163.094 27.4786 162.946 27.7676C162.728 28.1948 162.309 28.5413 161.922 28.6138C161.641 28.6664 161.613 28.6997 161.613 28.9736V29.2754H162.315H163.018L163.061 32.5484C163.098 35.3309 163.128 35.8948 163.26 36.3112C163.656 37.5599 164.425 38.0606 165.834 37.9866C166.438 37.955 166.648 37.9005 167.094 37.6609C167.388 37.5026 167.803 37.2225 168.017 37.0384L168.405 36.7037L168.17 36.4241L167.934 36.1444L167.486 36.4229C166.591 36.9785 165.61 36.8246 165.192 36.0634C164.928 35.5825 164.829 34.3121 164.824 31.3461L164.821 29.2754H166.47H168.119V28.741V28.2067H166.47H164.821V26.9598V25.7129H164.112H163.403L163.356 26.0024ZM49.9334 29.1652C50.429 30.8436 50.8346 32.2564 50.8346 32.3046C50.8346 32.3599 50.0734 32.3925 48.7848 32.3925C47.6574 32.3925 46.735 32.3801 46.735 32.3648C46.735 32.3443 48.6113 27.0284 48.9224 26.1678C48.9471 26.0996 48.9818 26.0595 48.9996 26.0787C49.0175 26.0979 49.4377 27.4869 49.9334 29.1652ZM35.8991 27.5495C38.3014 28.166 39.526 29.9224 39.4 32.5707C39.3205 34.2417 38.7796 35.4799 37.5625 36.7769C36.2083 38.2201 34.4352 39.2066 32.119 39.8056C31.2599 40.0277 30.8707 40.077 29.7127 40.1105L28.3313 40.1505L28.5987 39.9523C29.556 39.243 30.1159 38.3367 30.2222 37.3241L30.2701 36.8676L31.0062 37.2074C32.0442 37.6867 32.6651 37.8478 33.4492 37.8417C34.2903 37.835 34.9498 37.6152 35.7768 37.0657C36.6089 36.513 37.2214 35.8026 37.6945 34.8417C38.1955 33.8241 38.3575 33.1778 38.3575 32.1967C38.3575 30.1921 37.221 29.059 35.092 28.9411C33.1484 28.8333 31.9021 29.769 31.7826 31.4256C31.6787 32.8671 32.6281 34.1769 33.7736 34.1724C34.0963 34.1712 34.4435 34.0497 34.3445 33.9727C34.3214 33.9548 34.0949 33.7911 33.8412 33.6089C33.3831 33.2799 33.0097 32.7104 33.0108 32.3421C33.0142 31.1307 34.2837 30.2841 35.5465 30.6509C37.0102 31.0761 37.4862 32.6356 36.6548 34.2815C36.3173 34.9498 35.7971 35.4663 35.1623 35.7637C34.7181 35.9718 34.5492 35.9995 33.7232 35.9995C32.8613 35.9995 32.7454 35.9784 32.2545 35.7323C31.1616 35.1845 30.3039 34.0137 30.0222 32.6853C29.861 31.9251 29.8605 31.4375 30.0199 30.6859C30.2693 29.5102 30.8066 28.6845 31.6963 28.1098C32.8618 27.3569 34.3669 27.1564 35.8991 27.5495ZM67.1693 28.1578C66.6037 28.3344 66.0436 28.6926 65.4169 29.2784C65.1065 29.5686 64.8295 29.7829 64.8013 29.7548C64.7733 29.7267 64.7734 29.3468 64.8016 28.9106L64.853 28.1176L63.9264 28.1182C63.4167 28.1186 62.7289 28.1444 62.3981 28.1757C61.8112 28.2311 61.7965 28.2385 61.7965 28.4833C61.7965 28.7004 61.8442 28.747 62.1516 28.8297C62.3469 28.8823 62.6176 29.0206 62.7532 29.1371L62.9997 29.3489L63.0249 32.8703C63.054 36.9372 63.0582 36.9096 62.3738 37.2027C62.0112 37.358 61.9661 37.4077 61.9911 37.6243L62.0193 37.8698L64.0023 37.8938L65.9852 37.9177V37.6155C65.9852 37.3534 65.9509 37.3063 65.7278 37.2617C65.2881 37.1739 64.9903 36.842 64.9095 36.3504C64.8063 35.722 64.8097 31.4261 64.9137 31.0637C65.0482 30.595 65.4382 30.0956 65.9627 29.7203C67.0504 28.9419 68.2612 29.2393 68.6264 30.3748C68.744 30.7402 68.7825 31.3307 68.815 33.2675C68.8376 34.606 68.8288 35.9189 68.7955 36.1852C68.7247 36.7519 68.432 37.1593 68.0326 37.2469C67.8014 37.2977 67.7677 37.3441 67.7677 37.6114V37.9177L69.7506 37.8938L71.7336 37.8698V37.6106C71.7336 37.396 71.6823 37.3341 71.4359 37.2512C71.0361 37.1166 70.7437 36.82 70.6756 36.4799C70.5708 35.9562 70.6126 31.3232 70.7255 30.9465C70.9613 30.16 72.1075 29.2754 72.8907 29.2754C73.4705 29.2754 74.0135 29.6011 74.2593 30.0962C74.5463 30.6744 74.6545 32.0276 74.6103 34.4855C74.5693 36.7641 74.5259 36.9222 73.8609 37.2162C73.5142 37.3694 73.4646 37.4248 73.4885 37.6314L73.516 37.8698L75.499 37.8938L77.4819 37.9177V37.6238C77.4819 37.358 77.4458 37.3175 77.1032 37.1991C76.436 36.9686 76.4127 36.8564 76.4127 33.8597C76.4126 32.4379 76.3699 30.9351 76.3178 30.5203C76.1661 29.3114 75.8072 28.6967 75.0181 28.2938C74.6521 28.1071 74.4615 28.0731 73.7815 28.0731C73.0576 28.0731 72.9201 28.1014 72.4001 28.3573C72.0723 28.5185 71.5298 28.9112 71.1448 29.2658L70.4669 29.8901L70.3581 29.5271C70.1976 28.9916 69.5128 28.3444 68.921 28.1688C68.3564 28.0013 67.684 27.997 67.1693 28.1578ZM82.4282 28.1554C81.6746 28.3295 81.1146 28.5282 80.267 28.9221L79.5317 29.2638V29.9376V30.6113H80.2377H80.9435L81.0011 30.3493C81.089 29.9496 81.5383 29.3901 81.9333 29.1887C82.4482 28.9262 83.3821 28.9385 83.9047 29.2146C84.4881 29.5229 84.6966 29.9942 84.8156 31.2733C84.8682 31.8386 84.893 32.3192 84.8707 32.3414C84.8485 32.3636 84.421 32.4238 83.9208 32.4751C81.934 32.6788 80.6628 33.094 79.8845 33.7932C79.2253 34.3855 79.0496 34.7748 79.0496 35.6433C79.0496 36.4515 79.2149 36.8689 79.7244 37.3477C80.2858 37.8752 80.5465 37.9589 81.628 37.9589C82.553 37.9589 82.6438 37.9423 83.1876 37.6741C83.5051 37.5173 84.0257 37.168 84.3443 36.8977L84.9236 36.4063L84.9493 37.1626L84.9752 37.9188L86.3753 37.8943L87.7755 37.8698V37.6146C87.7755 37.3931 87.7225 37.3399 87.3744 37.213C87.0605 37.0985 86.9362 36.9907 86.8021 36.7168C86.6456 36.397 86.6281 36.1063 86.5987 33.3333C86.5621 29.8858 86.5024 29.4488 85.9847 28.8444C85.4955 28.2733 85.0091 28.0896 83.9037 28.0585C83.3232 28.0422 82.7581 28.0793 82.4282 28.1554ZM127.074 28.1473C125.579 28.5286 124.511 29.6199 124.024 31.2648C123.733 32.2493 123.719 33.9598 123.994 35.0043C124.535 37.0565 125.792 38.0034 127.979 38.0034C129.342 38.0034 130.415 37.5448 131.392 36.5451L131.784 36.1436L131.525 35.8331C131.383 35.6623 131.231 35.5197 131.188 35.5161C131.144 35.5125 130.931 35.6736 130.713 35.8739C129.668 36.8362 127.872 37.0514 126.834 36.3388C126.13 35.8556 125.697 34.7786 125.697 33.5105V32.9269H128.872H132.047L131.986 32.1922C131.808 30.078 131.206 28.9683 129.906 28.3607C129.396 28.1219 129.207 28.0836 128.423 28.0599C127.889 28.0438 127.341 28.0794 127.074 28.1473ZM136.659 28.0842C135.022 28.4003 134.097 29.2532 134.005 30.5292C133.908 31.8829 134.394 32.4317 136.652 33.5209C137.513 33.9366 138.349 34.4024 138.51 34.5561C139.24 35.2568 139.051 36.5125 138.141 37.0021C137.701 37.2389 136.371 37.211 135.884 36.9549C135.456 36.7297 135.137 36.3461 134.917 35.795L134.765 35.4124L134.263 35.4388L133.762 35.4652V36.5336V37.6021L134.475 37.7682C135.011 37.8931 135.575 37.9374 136.748 37.9466C138.538 37.9607 139.001 37.8613 139.737 37.3051C140.359 36.8355 140.616 36.2887 140.656 35.3539C140.684 34.6943 140.661 34.5607 140.447 34.1217C140.069 33.3513 139.712 33.1097 137.182 31.9139C136.247 31.472 135.917 31.1681 135.766 30.6073C135.427 29.3473 136.788 28.5264 138.403 29.0174C138.741 29.12 139.162 29.5527 139.414 30.0547C139.602 30.4309 139.606 30.4332 140.092 30.4332H140.58V29.3776V28.3221L139.978 28.2141C139.346 28.1008 137.04 28.0105 136.659 28.0842ZM146.047 28.155C144.466 28.5382 143.354 29.7185 142.93 31.4632C142.714 32.3542 142.735 34.0905 142.973 34.9904C143.204 35.8625 143.44 36.3218 143.928 36.8429C144.674 37.6401 145.663 38.0034 147.086 38.0034C149.023 38.0034 150.342 37.2552 151.057 35.7518C151.461 34.9023 151.628 34.074 151.628 32.9269C151.628 29.7315 150.08 28.0066 147.238 28.0361C146.836 28.0403 146.3 28.0937 146.047 28.155ZM158.805 28.1516C158.173 28.354 157.839 28.5754 157.122 29.2661L156.419 29.9433L156.476 29.0305L156.534 28.1176H155.7C155.242 28.1176 154.557 28.1437 154.18 28.1756L153.493 28.2336L153.52 28.5008C153.544 28.7356 153.598 28.7829 153.97 28.8907C154.729 29.1107 154.706 28.9827 154.706 33.0161C154.706 36.9872 154.72 36.9003 154.029 37.19C153.727 37.3167 153.683 37.3729 153.682 37.6266L153.681 37.9177L155.708 37.8938L157.736 37.8698V37.6166C157.736 37.4037 157.683 37.3451 157.401 37.2483C156.561 36.9596 156.532 36.8453 156.537 33.7981C156.54 31.9534 156.572 31.1917 156.658 30.952C156.948 30.1394 157.837 29.4207 158.538 29.4313C159.014 29.4386 159.293 29.6164 159.552 30.0761L159.753 30.4332H160.329H160.905L160.88 29.2531L160.855 28.0731L160.009 28.0552C159.514 28.0447 159.014 28.0848 158.805 28.1516ZM95.4877 28.4516C95.4904 28.6505 95.5614 28.7299 95.8665 28.8746C96.1135 28.9917 96.3076 29.1714 96.4336 29.3992C96.5391 29.5898 97.3183 31.6101 98.1653 33.8889L99.7052 38.0322L99.3789 38.6635C98.8993 39.5916 98.3614 40.3781 98.0592 40.5931C97.4894 40.9986 96.7197 40.8778 96.5902 40.3624C96.5396 40.1606 96.4917 40.1409 96.0542 40.1409H95.5736V41.1587V42.1765L96.0732 42.2388C96.7991 42.3295 97.6437 42.2385 98.0927 42.0212C98.6373 41.7579 99.3002 41.0627 99.7871 40.2447C100.014 39.8641 101.108 37.5107 102.219 35.0151C103.33 32.5195 104.371 30.2172 104.532 29.8988C104.842 29.2875 105.2 28.8899 105.533 28.7896C105.682 28.7447 105.733 28.6614 105.733 28.4679V28.2067H103.862H101.99V28.4617C101.99 28.6821 102.045 28.7377 102.392 28.8702C102.901 29.0643 103 29.2526 102.95 29.9332C102.918 30.3773 102.707 30.966 101.805 33.1263C101.196 34.5831 100.678 35.7747 100.654 35.7745C100.564 35.7735 98.6779 30.2882 98.6334 29.8992C98.5629 29.2827 98.6973 29.0455 99.2234 28.8589C99.6168 28.7192 99.6732 28.6683 99.6732 28.4529V28.2067H97.5789H95.4845L95.4877 28.4516ZM128.904 29.0529C129.533 29.3802 129.874 30.1179 130.025 31.4797L130.087 32.0363H127.886H125.686L125.748 31.6133C126.019 29.7492 126.964 28.7332 128.28 28.889C128.5 28.915 128.781 28.9888 128.904 29.0529ZM148.219 29.1508C149.184 29.7097 149.672 31.0659 149.669 33.1797C149.665 35.9158 148.682 37.3734 146.977 37.1717C146.057 37.0626 145.327 36.3394 144.987 35.198C144.784 34.5183 144.656 33.1423 144.721 32.348C144.894 30.2536 145.53 29.1646 146.729 28.9101C147.199 28.8105 147.799 28.9074 148.219 29.1508ZM28.2359 34.0624C28.3752 34.4911 28.506 34.8864 28.5266 34.941C28.5511 35.0061 28.3401 35.0549 27.9129 35.0828C26.8491 35.1522 26.1568 35.6414 26.011 36.4268L25.9482 36.7649L26.5233 36.449C27.7731 35.7625 28.9092 36.2062 28.9073 37.38C28.9058 38.3507 28.0816 39.252 27.1979 39.2494C26.752 39.248 26.0419 38.8731 25.6757 38.4456C25.0632 37.7305 24.8307 36.6426 25.0982 35.7427C25.2414 35.2609 25.7857 34.7243 26.9422 33.9248C27.4526 33.5719 27.8955 33.2832 27.9265 33.2832C27.9574 33.2832 28.0967 33.6339 28.2359 34.0624ZM84.8613 34.2067C84.8248 35.0255 84.7898 35.1847 84.5525 35.6094C83.9712 36.6496 82.5604 37.1443 81.5206 36.6726C81.0336 36.4516 80.8325 36.075 80.8283 35.3761C80.8258 34.9677 80.874 34.7628 81.0328 34.5069C81.4759 33.7929 82.7595 33.3276 84.3783 33.294L84.9024 33.2832L84.8613 34.2067ZM19.642 35.1241C20.3638 35.3642 20.4758 35.3759 22.0146 35.3732L23.6296 35.3703L23.6776 36.3974C23.737 37.6697 23.8835 38.1531 24.4556 38.9674C24.9728 39.7032 24.9485 39.725 23.9515 39.4189C22.5144 38.9778 20.7407 37.8781 19.814 36.8535C19.1704 36.1418 18.4389 34.7317 18.7673 34.8353C18.8317 34.8556 19.2253 34.9856 19.642 35.1241ZM39.7835 42.011V42.4565H65.7673H91.7512L91.724 42.0334L91.6968 41.6104L65.7402 41.5879L39.7835 41.5656V42.011ZM103.719 41.6908C103.693 41.7597 103.684 41.9502 103.7 42.114L103.728 42.4119L136.864 42.4343L170 42.4567L169.973 42.0335L169.946 41.6104L136.856 41.588C108.493 41.5688 103.76 41.5835 103.719 41.6908Z" fill="#78632A"/>
    <path fill-rule="evenodd" clip-rule="evenodd" d="M41.4567 0.105388C34.5898 1.08284 26.6365 4.97464 20.1124 10.5497C19.535 11.043 18.955 11.5606 18.8235 11.6998L18.5844 11.953L20.6817 14.2417L22.7789 16.5304L24.1292 15.35C28.909 11.1714 32.4064 8.61235 35.6976 6.8851C39.1597 5.06824 42.4637 4.21281 45.3981 4.37365C50.8633 4.67317 51.9961 7.95837 49.2352 15.5022C48.9874 16.1792 48.7848 16.7592 48.7848 16.7914C48.7848 16.8235 49.0101 16.5134 49.2855 16.1023C51.2321 13.1967 52.484 10.5839 52.8952 8.56862C53.054 7.79058 53.0334 6.2769 52.8547 5.58507C52.5802 4.52212 52.0612 3.61726 51.2184 2.73225C49.9595 1.41023 48.6192 0.643675 46.8414 0.228738C45.8195 -0.00976797 42.7582 -0.0798593 41.4567 0.105388Z" fill="#4F4119"/>
    <mask id="mask0_33_327" style="mask-type:alpha" maskUnits="userSpaceOnUse" x="55" y="45" width="11" height="11">
        <path d="M59.6991 50.1264L55.3937 49.8823L59.0865 52.0002L57.5172 56L60.6456 53.1444L63.9529 55.8927L62.174 52.0002L65.8669 49.8823L61.6303 50.1264L60.5693 45.9079L59.6991 50.1264Z" fill="#9D8E58"/>
    </mask>
    <g mask="url(#mask0_33_327)">
        <path d="M59.6991 50.1264L55.3937 49.8823L59.0865 52.0002L57.5172 56L60.6456 53.1445L63.9529 55.8927L62.174 52.0002L65.8669 49.8823L61.6303 50.1264L60.5693 45.9079L59.6991 50.1264Z" fill="#78632A"/>
        <path d="M60.5689 51.8986L59.6886 50.1302L60.5689 45.849V51.8986Z" fill="#78632A"/>
        <path d="M60.6016 51.9031L61.635 50.1111L60.5754 45.8344L60.6016 51.9031Z" fill="#9D8E58"/>
        <path d="M60.5721 51.9478L62.1882 52.004L63.9695 55.8846L60.5721 51.9478Z" fill="#9D8E58"/>
        <path d="M60.5692 51.9287L55.3964 49.8966L59.0495 52.0026L57.5038 56.0102L60.5692 51.9287Z" fill="#4F4119"/>
        <path fill-rule="evenodd" clip-rule="evenodd" d="M59.6498 49.9652L60.5978 51.9286L60.5576 51.9479L59.6096 49.9846L59.6498 49.9652Z" fill="#928256"/>
        <path fill-rule="evenodd" clip-rule="evenodd" d="M59.0419 52.0265L60.5788 51.9537L60.5766 51.9092L59.0398 51.982L59.0419 52.0265Z" fill="#928256"/>
        <path fill-rule="evenodd" clip-rule="evenodd" d="M60.5558 53.1822L60.5558 51.9306L60.6003 51.9306L60.6003 53.1822L60.5558 53.1822Z" fill="#928256"/>
        <path fill-rule="evenodd" clip-rule="evenodd" d="M60.5767 51.9537L62.2019 52.0236L62.2039 51.9791L60.5786 51.9092L60.5767 51.9537Z" fill="#928256"/>
        <path fill-rule="evenodd" clip-rule="evenodd" d="M61.6287 50.0841L60.5588 51.9271L60.5973 51.9495L61.6672 50.1065L61.6287 50.0841Z" fill="#928256"/>
        <path fill-rule="evenodd" clip-rule="evenodd" d="M57.4461 56.0075L60.5426 51.9047L60.6138 51.9583L57.5173 56.0611L57.4461 56.0075Z" fill="#CBB989"/>
        <path fill-rule="evenodd" clip-rule="evenodd" d="M64.0079 55.8844L60.612 51.9026L60.5442 51.9604L63.9401 55.9422L64.0079 55.8844Z" fill="#CBB989"/>
        <path fill-rule="evenodd" clip-rule="evenodd" d="M65.8777 49.8778L60.5945 51.9729L60.5616 51.8901L65.8449 49.795L65.8777 49.8778Z" fill="#CBB989"/>
        <path fill-rule="evenodd" clip-rule="evenodd" d="M55.3747 49.9031L60.5616 51.9728L60.5946 51.8901L55.4077 49.8203L55.3747 49.9031Z" fill="#CBB989"/>
        <path fill-rule="evenodd" clip-rule="evenodd" d="M60.5327 45.9027V51.93H60.6218V45.9027H60.5327Z" fill="#CBB989"/>
    </g>
    <mask id="mask1_33_327" style="mask-type:alpha" maskUnits="userSpaceOnUse" x="73" y="45" width="12" height="11">
        <path d="M77.93 50.1264L73.6247 49.8823L77.3174 52.0002L75.7481 56L78.8765 53.1444L82.1838 55.8927L80.4049 52.0002L84.0979 49.8823L79.8613 50.1264L78.8002 45.9079L77.93 50.1264Z" fill="#9D8E58"/>
    </mask>
    <g mask="url(#mask1_33_327)">
        <path d="M77.93 50.1264L73.6247 49.8823L77.3174 52.0002L75.7481 56L78.8765 53.1445L82.1838 55.8927L80.4049 52.0002L84.0979 49.8823L79.8613 50.1264L78.8002 45.9079L77.93 50.1264Z" fill="#78632A"/>
        <path d="M78.7998 51.8986L77.9196 50.1302L78.7998 45.849V51.8986Z" fill="#78632A"/>
        <path d="M78.8325 51.9031L79.866 50.1111L78.8064 45.8344L78.8325 51.9031Z" fill="#9D8E58"/>
        <path d="M78.8031 51.9478L80.4191 52.004L82.2005 55.8846L78.8031 51.9478Z" fill="#9D8E58"/>
        <path d="M78.8001 51.9287L73.6273 49.8966L77.2805 52.0026L75.7347 56.0102L78.8001 51.9287Z" fill="#4F4119"/>
        <path fill-rule="evenodd" clip-rule="evenodd" d="M77.8807 49.9652L78.8287 51.9286L78.7885 51.9479L77.8406 49.9846L77.8807 49.9652Z" fill="#928256"/>
        <path fill-rule="evenodd" clip-rule="evenodd" d="M77.2728 52.0265L78.8097 51.9537L78.8076 51.9092L77.2707 51.982L77.2728 52.0265Z" fill="#928256"/>
        <path fill-rule="evenodd" clip-rule="evenodd" d="M78.7867 53.1822L78.7867 51.9306L78.8313 51.9306L78.8313 53.1822L78.7867 53.1822Z" fill="#928256"/>
        <path fill-rule="evenodd" clip-rule="evenodd" d="M78.8076 51.9537L80.4329 52.0236L80.4348 51.9791L78.8096 51.9092L78.8076 51.9537Z" fill="#928256"/>
        <path fill-rule="evenodd" clip-rule="evenodd" d="M79.8596 50.0842L78.7898 51.9272L78.8283 51.9495L79.8982 50.1065L79.8596 50.0842Z" fill="#928256"/>
        <path fill-rule="evenodd" clip-rule="evenodd" d="M75.677 56.0075L78.7736 51.9047L78.8447 51.9583L75.7482 56.0611L75.677 56.0075Z" fill="#CBB989"/>
        <path fill-rule="evenodd" clip-rule="evenodd" d="M82.2389 55.8844L78.8429 51.9026L78.7751 51.9604L82.171 55.9422L82.2389 55.8844Z" fill="#CBB989"/>
        <path fill-rule="evenodd" clip-rule="evenodd" d="M84.1087 49.8778L78.8255 51.9729L78.7926 51.8901L84.0759 49.795L84.1087 49.8778Z" fill="#CBB989"/>
        <path fill-rule="evenodd" clip-rule="evenodd" d="M73.6056 49.9031L78.7925 51.9728L78.8256 51.8901L73.6387 49.8204L73.6056 49.9031Z" fill="#CBB989"/>
        <path fill-rule="evenodd" clip-rule="evenodd" d="M78.7636 45.9027V51.93H78.8528V45.9027H78.7636Z" fill="#CBB989"/>
    </g>
    <mask id="mask2_33_327" style="mask-type:alpha" maskUnits="userSpaceOnUse" x="92" y="45" width="12" height="11">
        <path d="M96.9339 50.1264L92.6286 49.8823L96.3213 52.0002L94.752 56L97.8804 53.1444L101.188 55.8927L99.4088 52.0002L103.102 49.8823L98.8652 50.1264L97.8041 45.9079L96.9339 50.1264Z" fill="#9D8E58"/>
    </mask>
    <g mask="url(#mask2_33_327)">
        <path d="M96.9339 50.1264L92.6286 49.8823L96.3213 52.0002L94.752 56L97.8804 53.1445L101.188 55.8927L99.4088 52.0002L103.102 49.8823L98.8652 50.1264L97.8041 45.9079L96.9339 50.1264Z" fill="#78632A"/>
        <path d="M97.8037 51.8986L96.9235 50.1302L97.8037 45.849V51.8986Z" fill="#78632A"/>
        <path d="M97.8365 51.9031L98.8699 50.1111L97.8103 45.8344L97.8365 51.9031Z" fill="#9D8E58"/>
        <path d="M97.807 51.9478L99.4231 52.004L101.204 55.8846L97.807 51.9478Z" fill="#9D8E58"/>
        <path d="M97.804 51.9287L92.6312 49.8966L96.2844 52.0026L94.7386 56.0102L97.804 51.9287Z" fill="#4F4119"/>
        <path fill-rule="evenodd" clip-rule="evenodd" d="M96.8847 49.9652L97.8327 51.9286L97.7925 51.9479L96.8446 49.9846L96.8847 49.9652Z" fill="#928256"/>
        <path fill-rule="evenodd" clip-rule="evenodd" d="M96.2768 52.0265L97.8136 51.9537L97.8115 51.9092L96.2747 51.982L96.2768 52.0265Z" fill="#928256"/>
        <path fill-rule="evenodd" clip-rule="evenodd" d="M97.7907 53.1822L97.7907 51.9306L97.8352 51.9306L97.8352 53.1822L97.7907 53.1822Z" fill="#928256"/>
        <path fill-rule="evenodd" clip-rule="evenodd" d="M97.8116 51.9537L99.4368 52.0236L99.4387 51.9791L97.8135 51.9092L97.8116 51.9537Z" fill="#928256"/>
        <path fill-rule="evenodd" clip-rule="evenodd" d="M98.8636 50.0842L97.7938 51.9272L97.8323 51.9495L98.9022 50.1065L98.8636 50.0842Z" fill="#928256"/>
        <path fill-rule="evenodd" clip-rule="evenodd" d="M94.6809 56.0075L97.7775 51.9047L97.8486 51.9583L94.7521 56.0611L94.6809 56.0075Z" fill="#CBB989"/>
        <path fill-rule="evenodd" clip-rule="evenodd" d="M101.243 55.8844L97.8469 51.9026L97.7791 51.9604L101.175 55.9422L101.243 55.8844Z" fill="#CBB989"/>
        <path fill-rule="evenodd" clip-rule="evenodd" d="M103.113 49.8778L97.8294 51.9729L97.7965 51.8901L103.08 49.795L103.113 49.8778Z" fill="#CBB989"/>
        <path fill-rule="evenodd" clip-rule="evenodd" d="M92.6095 49.9031L97.7964 51.9728L97.8295 51.8901L92.6426 49.8204L92.6095 49.9031Z" fill="#CBB989"/>
        <path fill-rule="evenodd" clip-rule="evenodd" d="M97.7675 45.9027V51.93H97.8567V45.9027H97.7675Z" fill="#CBB989"/>
    </g>
    <mask id="mask3_33_327" style="mask-type:alpha" maskUnits="userSpaceOnUse" x="113" y="45" width="12" height="11">
        <path d="M117.954 50.1264L113.649 49.8823L117.342 52.0002L115.772 56L118.901 53.1444L122.208 55.8927L120.429 52.0002L124.122 49.8823L119.886 50.1264L118.824 45.9079L117.954 50.1264Z" fill="#9D8E58"/>
    </mask>
    <g mask="url(#mask3_33_327)">
        <path d="M117.954 50.1264L113.649 49.8823L117.342 52.0002L115.772 56L118.901 53.1445L122.208 55.8927L120.429 52.0002L124.122 49.8823L119.886 50.1264L118.824 45.9079L117.954 50.1264Z" fill="#78632A"/>
        <path d="M118.824 51.8986L117.944 50.1302L118.824 45.849V51.8986Z" fill="#78632A"/>
        <path d="M118.857 51.9031L119.89 50.1111L118.831 45.8344L118.857 51.9031Z" fill="#9D8E58"/>
        <path d="M118.827 51.9478L120.443 52.004L122.225 55.8846L118.827 51.9478Z" fill="#9D8E58"/>
        <path d="M118.824 51.9287L113.652 49.8966L117.305 52.0026L115.759 56.0102L118.824 51.9287Z" fill="#4F4119"/>
        <path fill-rule="evenodd" clip-rule="evenodd" d="M117.905 49.9652L118.853 51.9286L118.813 51.9479L117.865 49.9846L117.905 49.9652Z" fill="#928256"/>
        <path fill-rule="evenodd" clip-rule="evenodd" d="M117.297 52.0265L118.834 51.9537L118.832 51.9092L117.295 51.982L117.297 52.0265Z" fill="#928256"/>
        <path fill-rule="evenodd" clip-rule="evenodd" d="M118.811 53.1822L118.811 51.9306L118.856 51.9306L118.856 53.1822L118.811 53.1822Z" fill="#928256"/>
        <path fill-rule="evenodd" clip-rule="evenodd" d="M118.832 51.9537L120.457 52.0236L120.459 51.9791L118.834 51.9092L118.832 51.9537Z" fill="#928256"/>
        <path fill-rule="evenodd" clip-rule="evenodd" d="M119.884 50.0842L118.814 51.9272L118.853 51.9495L119.923 50.1065L119.884 50.0842Z" fill="#928256"/>
        <path fill-rule="evenodd" clip-rule="evenodd" d="M115.701 56.0075L118.798 51.9047L118.869 51.9583L115.772 56.0611L115.701 56.0075Z" fill="#CBB989"/>
        <path fill-rule="evenodd" clip-rule="evenodd" d="M122.263 55.8844L118.867 51.9026L118.799 51.9604L122.195 55.9422L122.263 55.8844Z" fill="#CBB989"/>
        <path fill-rule="evenodd" clip-rule="evenodd" d="M124.133 49.8778L118.85 51.9729L118.817 51.8901L124.1 49.795L124.133 49.8778Z" fill="#CBB989"/>
        <path fill-rule="evenodd" clip-rule="evenodd" d="M113.63 49.9031L118.817 51.9728L118.85 51.8901L113.663 49.8204L113.63 49.9031Z" fill="#CBB989"/>
        <path fill-rule="evenodd" clip-rule="evenodd" d="M118.788 45.9027V51.93H118.877V45.9027H118.788Z" fill="#CBB989"/>
    </g>
    <mask id="mask4_33_327" style="mask-type:alpha" maskUnits="userSpaceOnUse" x="134" y="45" width="12" height="11">
        <path d="M138.868 50.1264L134.562 49.8823L138.255 52.0002L136.686 56L139.814 53.1444L143.122 55.8927L141.343 52.0002L145.036 49.8823L140.799 50.1264L139.738 45.9079L138.868 50.1264Z" fill="#9D8E58"/>
    </mask>
    <g mask="url(#mask4_33_327)">
        <path d="M138.868 50.1264L134.562 49.8823L138.255 52.0002L136.686 56L139.814 53.1445L143.122 55.8927L141.343 52.0002L145.036 49.8823L140.799 50.1264L139.738 45.9079L138.868 50.1264Z" fill="#78632A"/>
        <path d="M139.738 51.8986L138.857 50.1302L139.738 45.849V51.8986Z" fill="#78632A"/>
        <path d="M139.77 51.9031L140.804 50.1111L139.744 45.8344L139.77 51.9031Z" fill="#9D8E58"/>
        <path d="M139.741 51.9478L141.357 52.004L143.138 55.8846L139.741 51.9478Z" fill="#9D8E58"/>
        <path d="M139.738 51.9287L134.565 49.8966L138.218 52.0026L136.673 56.0102L139.738 51.9287Z" fill="#4F4119"/>
        <path fill-rule="evenodd" clip-rule="evenodd" d="M138.819 49.9652L139.767 51.9286L139.726 51.9479L138.778 49.9846L138.819 49.9652Z" fill="#928256"/>
        <path fill-rule="evenodd" clip-rule="evenodd" d="M138.211 52.0265L139.748 51.9537L139.745 51.9092L138.209 51.982L138.211 52.0265Z" fill="#928256"/>
        <path fill-rule="evenodd" clip-rule="evenodd" d="M139.725 53.1822L139.725 51.9306L139.769 51.9306L139.769 53.1822L139.725 53.1822Z" fill="#928256"/>
        <path fill-rule="evenodd" clip-rule="evenodd" d="M139.745 51.9537L141.371 52.0236L141.373 51.9791L139.747 51.9092L139.745 51.9537Z" fill="#928256"/>
        <path fill-rule="evenodd" clip-rule="evenodd" d="M140.797 50.0842L139.728 51.9272L139.766 51.9495L140.836 50.1065L140.797 50.0842Z" fill="#928256"/>
        <path fill-rule="evenodd" clip-rule="evenodd" d="M136.615 56.0075L139.711 51.9047L139.783 51.9583L136.686 56.0611L136.615 56.0075Z" fill="#CBB989"/>
        <path fill-rule="evenodd" clip-rule="evenodd" d="M143.177 55.8844L139.781 51.9026L139.713 51.9604L143.109 55.9422L143.177 55.8844Z" fill="#CBB989"/>
        <path fill-rule="evenodd" clip-rule="evenodd" d="M145.047 49.8778L139.763 51.9729L139.73 51.8901L145.014 49.795L145.047 49.8778Z" fill="#CBB989"/>
        <path fill-rule="evenodd" clip-rule="evenodd" d="M134.543 49.9031L139.73 51.9728L139.763 51.8901L134.577 49.8204L134.543 49.9031Z" fill="#CBB989"/>
        <path fill-rule="evenodd" clip-rule="evenodd" d="M139.701 45.9027V51.93H139.791V45.9027H139.701Z" fill="#CBB989"/>
    </g>
</svg>
